<?xml version="1.0" encoding="UTF-8" standalone="no"?>
<!-- Created with Inkscape (http://www.inkscape.org/) -->

<svg
   xmlns:osb="http://www.openswatchbook.org/uri/2009/osb"
   xmlns:dc="http://purl.org/dc/elements/1.1/"
   xmlns:cc="http://creativecommons.org/ns#"
   xmlns:rdf="http://www.w3.org/1999/02/22-rdf-syntax-ns#"
   xmlns:svg="http://www.w3.org/2000/svg"
   xmlns="http://www.w3.org/2000/svg"
   xmlns:xlink="http://www.w3.org/1999/xlink"
   xmlns:sodipodi="http://sodipodi.sourceforge.net/DTD/sodipodi-0.dtd"
   xmlns:inkscape="http://www.inkscape.org/namespaces/inkscape"
   width="1052.3622"
   height="744.09448"
   id="svg2"
   version="1.1"
   inkscape:version="0.48.4 r9939"
   sodipodi:docname="lab04.svg">
  <defs
     id="defs4">
    <inkscape:path-effect
       effect="spiro"
       id="path-effect4243"
       is_visible="true" />
    <inkscape:path-effect
       effect="spiro"
       id="path-effect4152"
       is_visible="true" />
    <inkscape:path-effect
       effect="spiro"
       id="path-effect4114"
       is_visible="true" />
    <inkscape:path-effect
       effect="spiro"
       id="path-effect4110"
       is_visible="true" />
    <inkscape:path-effect
       effect="spiro"
       id="path-effect4106"
       is_visible="true" />
    <inkscape:path-effect
       effect="spiro"
       id="path-effect3878"
       is_visible="true" />
    <inkscape:path-effect
       effect="spiro"
       id="path-effect3834"
       is_visible="true" />
    <linearGradient
       id="linearGradient3818"
       osb:paint="solid">
      <stop
         style="stop-color:#000000;stop-opacity:1;"
         offset="0"
         id="stop3820" />
    </linearGradient>
    <linearGradient
       inkscape:collect="always"
       xlink:href="#linearGradient3818"
       id="linearGradient3822"
       x1="449.50001"
       y1="434.22604"
       x2="781.99969"
       y2="434.22604"
       gradientUnits="userSpaceOnUse" />
    <inkscape:path-effect
       effect="spiro"
       id="path-effect3834-3"
       is_visible="true" />
    <inkscape:path-effect
       effect="spiro"
       id="path-effect3878-5"
       is_visible="true" />
    <inkscape:path-effect
       effect="spiro"
       id="path-effect4243-4"
       is_visible="true" />
  </defs>
  <sodipodi:namedview
     id="base"
     pagecolor="#552222"
     bordercolor="#666666"
     borderopacity="1.0"
     inkscape:pageopacity="0"
     inkscape:pageshadow="2"
     inkscape:zoom="2"
     inkscape:cx="766.73766"
     inkscape:cy="202.66777"
     inkscape:document-units="px"
     inkscape:current-layer="layer1"
     showgrid="false"
     inkscape:window-width="1301"
     inkscape:window-height="744"
     inkscape:window-x="65"
     inkscape:window-y="24"
     inkscape:window-maximized="1" />
  <metadata
     id="metadata7">
    <rdf:RDF>
      <cc:Work
         rdf:about="">
        <dc:format>image/svg+xml</dc:format>
        <dc:type
           rdf:resource="http://purl.org/dc/dcmitype/StillImage" />
        <dc:title></dc:title>
      </cc:Work>
    </rdf:RDF>
  </metadata>
  <g
     inkscape:label="Layer 1"
     inkscape:groupmode="layer"
     id="layer1"
     transform="translate(0,-308.2677)">
    <rect
       style="fill:#000000"
       id="rect2991"
       width="230.26315"
       height="3.9473684"
       x="575.1579"
       y="397.09903" />
    <rect
       style="fill:#000000"
       id="rect2991-3"
       width="230.26315"
       height="3.9473684"
       x="19.394741"
       y="397.75693" />
    <rect
       style="fill:#000000"
       id="rect3011"
       width="81.578949"
       height="3.9473684"
       x="445.92404"
       y="149.91299"
       transform="matrix(0.77217253,0.63541292,-0.63541292,0.77217253,0,0)" />
    <rect
       style="fill:#000000"
       id="rect3013"
       width="211.68555"
       height="4.9440732"
       x="-4.2217417"
       y="605.39905"
       transform="matrix(0.9221741,-0.38677503,0.40550362,0.91409344,0,0)"
       inkscape:transform-center-x="-99.591262"
       inkscape:transform-center-y="-42.463082" />
    <rect
       style="fill:#000000"
       id="rect3018"
       width="56.578949"
       height="5.2631578"
       x="187.1579"
       y="554.30957" />
    <rect
       style="fill:#aad400"
       id="rect3020"
       width="35.526314"
       height="30.263157"
       x="187.10527"
       y="524.73059" />
    <rect
       style="fill:#000000;stroke-width:4.87555361;stroke-miterlimit:4;stroke-dasharray:none"
       id="rect3024"
       width="2.7602055"
       height="50.739361"
       x="573.50598"
       y="329.86206"
       transform="matrix(0.78608542,0.61811788,-0.79255597,0.60979918,0,0)" />
    <rect
       style="fill:#000000"
       id="rect3024-5"
       width="3.9473684"
       height="30.263157"
       x="109.02631"
       y="555.41479" />
    <rect
       style="fill:#000000"
       id="rect3044"
       width="43.421051"
       height="3.9473684"
       x="110.1579"
       y="584.099" />
    <rect
       style="fill:#000000"
       id="rect3046"
       width="46.052631"
       height="3.9473684"
       x="64.736839"
       y="554.36218"
       ry="0" />
    <path
       style="fill:none;stroke:#000000;stroke-width:4;stroke-linecap:butt;stroke-linejoin:miter;stroke-miterlimit:4;stroke-opacity:1;stroke-dasharray:none"
       d="m 64.736842,554.99376 c -10.843038,11.25322 -18.715035,25.34412 -22.612971,40.47728 -3.897936,15.13317 -3.812803,31.27363 0.24455,46.36483 4.822429,17.93688 15.285526,34.31312 29.535178,46.22676 14.249651,11.91364 32.220491,19.31003 50.727981,20.8785 23.29133,0.79418 46.78158,-6.2529 65.78947,-19.73685 13.181,-9.35044 24.04943,-21.5171 35.52632,-32.89473 17.73461,-17.58124 37.14983,-33.46642 57.89473,-47.36842"
       id="path3832"
       inkscape:path-effect="#path-effect3834"
       inkscape:original-d="m 64.736842,554.99376 c 0,0 -63.157895,61.84211 -22.368421,86.84211 40.789469,25 80.263159,67.10526 80.263159,67.10526 0,0 36.84211,0 65.78947,-19.73685 28.94737,-19.73684 84.21053,-121.05262 35.52632,-32.89473 -48.68421,88.1579 57.89473,-47.36842 57.89473,-47.36842"
       inkscape:connector-curvature="0"
       sodipodi:nodetypes="cscssc" />
    <path
       style="fill:none;stroke:#000000;stroke-width:4;stroke-linecap:butt;stroke-linejoin:miter;stroke-miterlimit:4;stroke-opacity:1;stroke-dasharray:none"
       d="M 29.448133,554.33587 C 11.056267,578.87679 2.8321555,610.8057 7.079712,641.17798 c 2.973694,21.26349 11.90538,41.66174 25.513816,58.26865 13.608437,16.6069 31.853433,29.37342 52.117762,36.46819 29.77473,11.78061 64.35672,10.80647 93.42106,-2.63159 24.80933,-11.47073 44.78938,-31.03665 64.47369,-49.99999 21.22946,-20.45189 42.72307,-40.62957 64.47368,-60.52632"
       id="path3832-4"
       inkscape:path-effect="#path-effect3834-3"
       inkscape:original-d="m 29.448133,554.33587 c 0,0 -63.157895,61.84211 -22.368421,86.84211 40.789469,25 77.631578,94.73684 77.631578,94.73684 0,0 64.4737,17.10526 93.42106,-2.63159 28.94737,-19.73684 436.84211,-178.94735 64.47369,-49.99999 -95.16303,32.95398 64.47368,-60.52632 64.47368,-60.52632"
       inkscape:connector-curvature="0"
       sodipodi:nodetypes="cscssc" />
    <path
       style="fill:none;stroke:#000000;stroke-width:3.38964891;stroke-linecap:butt;stroke-linejoin:miter;stroke-miterlimit:4;stroke-opacity:1;stroke-dasharray:none"
       d="m 307.85271,638.95174 67.71563,35.58175 0,45.88172 -1.32776,0.93637"
       id="path3876"
       inkscape:path-effect="#path-effect3878"
       inkscape:original-d="m 307.85271,638.95174 c 67.71563,38.39083 67.71563,35.58175 67.71563,35.58175 l 0,45.88172 -1.32776,0.93637"
       inkscape:connector-curvature="0" />
    <path
       style="fill:none;stroke:#000000;stroke-width:3.38884044;stroke-linecap:butt;stroke-linejoin:miter;stroke-miterlimit:4;stroke-opacity:1;stroke-dasharray:none"
       d="m 476.9516,638.80532 -70.95583,35.57184 0,45.86896 1.39129,0.9361"
       id="path3876-5"
       inkscape:path-effect="#path-effect3878-5"
       inkscape:original-d="m 476.9516,638.80532 c -70.95583,38.38015 -70.95583,35.57184 -70.95583,35.57184 l 0,45.86896 1.39129,0.9361"
       inkscape:connector-curvature="0" />
    <rect
       style="fill:#aad400;stroke:none"
       id="rect3904"
       width="71.05265"
       height="3.9473684"
       x="185.78949"
       y="520.78326" />
    <rect
       style="fill:#000000;stroke:none"
       id="rect3910"
       width="5.2631578"
       height="69.736839"
       x="471.3158"
       y="528.67798" />
    <rect
       style="fill:#000000;stroke:none"
       id="rect3910-1"
       width="5.2631578"
       height="69.736839"
       x="563.30951"
       y="-508.1842"
       transform="matrix(0,1,-1,0,0,0)" />
    <rect
       style="fill:#000000;stroke:none"
       id="rect3930"
       width="48"
       height="3.9473877"
       x="419.36841"
       y="615.67798" />
    <rect
       style="fill:#00ffff;stroke:none"
       id="rect3932"
       width="3.9473684"
       height="23.68421"
       x="463.47369"
       y="593.30951" />
    <path
       sodipodi:type="arc"
       style="fill:#000000;stroke:none"
       id="path3936"
       sodipodi:cx="715.78949"
       sodipodi:cy="484.88394"
       sodipodi:rx="28.947369"
       sodipodi:ry="28.947369"
       d="m 744.45207,480.83344 a 28.947369,28.947369 0 0 1 0.0422,0.3105"
       transform="translate(-118,308.2677)"
       sodipodi:start="6.1427982"
       sodipodi:end="6.153623"
       sodipodi:open="true" />
    <path
       sodipodi:type="arc"
       style="fill:#000000;stroke:none"
       id="path3940"
       sodipodi:cx="683.55261"
       sodipodi:cy="396.06818"
       sodipodi:rx="24.342106"
       sodipodi:ry="73.026314"
       d="m 707.65524,385.84987 a 24.342106,73.026314 0 0 1 0.0355,0.7833"
       transform="translate(-30,308.2677)"
       sodipodi:start="6.1427982"
       sodipodi:end="6.153623"
       sodipodi:open="true" />
    <path
       sodipodi:type="arc"
       style="fill:#800000;stroke:none"
       id="path3946"
       sodipodi:cx="323.6842"
       sodipodi:cy="558.56818"
       sodipodi:rx="11.842105"
       sodipodi:ry="11.842105"
       d="m 335.40981,556.91115 a 11.842105,11.842105 0 1 1 -0.0124,-0.0857 l -11.71317,1.74277 z"
       transform="translate(121.31579,44.636121)"
       sodipodi:start="6.1427982"
       sodipodi:end="12.418667" />
    <path
       sodipodi:type="arc"
       style="fill:#a7ac93;stroke:none"
       id="path3946-2-1"
       sodipodi:cx="323.6842"
       sodipodi:cy="558.56818"
       sodipodi:rx="11.842105"
       sodipodi:ry="11.842105"
       d="m 335.40981,556.91115 a 11.842105,11.842105 0 1 1 -0.0124,-0.0857 l -11.71317,1.74277 z"
       transform="matrix(0.55561072,0,0,0.55561072,294.84179,255.22623)"
       sodipodi:start="6.1427982"
       sodipodi:end="12.418667" />
    <path
       sodipodi:type="arc"
       style="fill:#800000;stroke:none"
       id="path3946-2-7"
       sodipodi:cx="323.6842"
       sodipodi:cy="558.56818"
       sodipodi:rx="11.842105"
       sodipodi:ry="11.842105"
       d="m 335.40981,556.91115 a 11.842105,11.842105 0 1 1 -0.0124,-0.0857 l -11.71317,1.74277 z"
       transform="translate(468.68422,-173.20601)"
       sodipodi:start="6.1427982"
       sodipodi:end="12.418667" />
    <path
       sodipodi:type="arc"
       style="fill:#800000;stroke:none"
       id="path3946-2-11"
       sodipodi:cx="323.6842"
       sodipodi:cy="558.56818"
       sodipodi:rx="11.842105"
       sodipodi:ry="11.842105"
       d="m 335.40981,556.91115 a 11.842105,11.842105 0 1 1 -0.0124,-0.0857 l -11.71317,1.74277 z"
       transform="translate(-295.78947,-172.5218)"
       sodipodi:start="6.1427982"
       sodipodi:end="12.418667" />
    <rect
       style="fill:#000000"
       id="rect3044-6"
       width="43.421051"
       height="3.9473684"
       x="584.02643"
       y="857.599" />
    <rect
       style="fill:#000000"
       id="rect3044-5"
       width="66.315788"
       height="2.3923445"
       x="794.65173"
       y="-627.24878"
       transform="matrix(0,1,-1,0,0,0)" />
    <rect
       style="fill:#000000"
       id="rect3044-5-5"
       width="26.315788"
       height="2.3923445"
       x="834.62537"
       y="-585.93298"
       transform="matrix(0,1,-1,0,0,0)" />
    <rect
       style="fill:#80b3ff;stroke:none"
       id="rect4074"
       width="98.473679"
       height="2.6315789"
       x="604.63159"
       y="819.99377" />
    <rect
       style="fill:#80b3ff;stroke:none"
       id="rect4076"
       width="2.6315789"
       height="36.842106"
       x="603.73682"
       y="820.52008" />
    <rect
       style="fill:#80b3ff;stroke:none"
       id="rect4078"
       width="2.6315789"
       height="77.631577"
       x="703.21039"
       y="821.41479" />
    <rect
       style="fill:#aa4400;stroke:none"
       id="rect4080"
       width="114.47369"
       height="3.9473684"
       x="593.36841"
       y="899.04639" />
    <rect
       style="fill:#000000;stroke:none"
       id="rect4082"
       width="150"
       height="3.9473684"
       x="578.89478"
       y="902.99377" />
    <path
       sodipodi:type="arc"
       style="fill:#800000;stroke:none"
       id="path3946-2-2"
       sodipodi:cx="323.6842"
       sodipodi:cy="558.56818"
       sodipodi:rx="11.842105"
       sodipodi:ry="11.842105"
       d="m 335.40981,556.91115 a 11.842105,11.842105 0 1 1 -0.0124,-0.0857 l -11.71317,1.74277 z"
       transform="matrix(1.3377361,0,0,1.3377361,253.20646,136.67161)"
       sodipodi:start="6.1427982"
       sodipodi:end="12.418667" />
    <path
       style="fill:none;stroke:#000000;stroke-width:3.92697072;stroke-linecap:butt;stroke-linejoin:miter;stroke-miterlimit:4;stroke-opacity:1;stroke-dasharray:none"
       d="m 374.96349,721.32567 0,26.07302 97.07302,0 0,-3.00842"
       id="path4104"
       inkscape:path-effect="#path-effect4106"
       inkscape:original-d="m 374.96349,721.32567 0,26.07302 97.07302,0 0,-3.00842"
       inkscape:connector-curvature="0" />
    <path
       style="fill:none;stroke:#000000;stroke-width:4;stroke-linecap:butt;stroke-linejoin:miter;stroke-miterlimit:4;stroke-opacity:1;stroke-dasharray:none"
       d="m 405,721.36218 69,0"
       id="path4108"
       inkscape:path-effect="#path-effect4110"
       inkscape:original-d="m 405,721.36218 69,0"
       inkscape:connector-curvature="0" />
    <path
       style="fill:none;stroke:#000000;stroke-width:3.15449405;stroke-linecap:butt;stroke-linejoin:miter;stroke-miterlimit:4;stroke-opacity:1;stroke-dasharray:none"
       d="m 468.57725,746.78493 16.07661,0 17.76889,-19.8455"
       id="path4112"
       inkscape:path-effect="#path-effect4114"
       inkscape:original-d="m 468.57725,746.78493 16.07661,0 17.76889,-19.8455"
       inkscape:connector-curvature="0"
       sodipodi:nodetypes="ccc" />
    <rect
       style="fill:#f2f2f2;stroke:none"
       id="rect4118"
       width="4"
       height="31"
       x="479"
       y="715.36218" />
    <path
       sodipodi:type="arc"
       style="fill:#ffff00;stroke:none"
       id="path4120"
       sodipodi:cx="561.5"
       sodipodi:cy="389.59448"
       sodipodi:rx="8.5"
       sodipodi:ry="6.5"
       d="m 569.91638,388.68496 a 8.5,6.5 0 1 1 -4.47533,-4.84959"
       transform="matrix(-0.03524579,0.99937867,-0.99937867,-0.03524579,890.64294,160.44263)"
       sodipodi:start="6.1427982"
       sodipodi:end="11.477688"
       sodipodi:open="true" />
    <rect
       style="fill:#000000;stroke:none"
       id="rect4124"
       width="35"
       height="3"
       x="497"
       y="662.36218" />
    <rect
       style="fill:#000000;stroke:none"
       id="rect4126"
       width="3"
       height="107"
       x="514"
       y="664.36218" />
    <path
       sodipodi:type="arc"
       style="fill:#800000;stroke:none"
       id="path3946-5"
       sodipodi:cx="323.6842"
       sodipodi:cy="558.56818"
       sodipodi:rx="11.842105"
       sodipodi:ry="11.842105"
       d="m 335.40981,556.91115 a 11.842105,11.842105 0 1 1 -0.0124,-0.0857 l -11.71317,1.74277 z"
       transform="translate(192.31579,212.79399)"
       sodipodi:start="6.1427982"
       sodipodi:end="12.418667" />
    <path
       style="fill:#000000;stroke:none"
       d=""
       id="path4154"
       inkscape:connector-curvature="0" />
    <path
       style="fill:#000000;stroke:none"
       d="m 436.98494,880.62486 c 0.7856,-1.2375 3.82316,-6.1875 6.75011,-11 2.92696,-4.8125 5.60835,-8.75 5.95866,-8.75 0.58175,0 11.09287,20.38385 11.09287,21.51202 0,0.26839 -5.67676,0.48798 -12.61501,0.48798 l -12.61501,0 1.42838,-2.25 z"
       id="path4156"
       inkscape:connector-curvature="0" />
    <rect
       style="fill:#000000;stroke:none"
       id="rect4158"
       width="170"
       height="2"
       x="129.76244"
       y="944.50586"
       transform="matrix(0.96687175,-0.25526266,0.25526266,0.96687175,0,0)" />
    <rect
       style="fill:#000000;stroke:none"
       id="rect4160"
       width="3"
       height="29"
       x="124.08298"
       y="917.45563"
       transform="matrix(0.96532986,-0.26103307,0.26103307,0.96532986,0,0)" />
    <rect
       style="fill:#aad400"
       id="rect3020-8"
       width="35.526314"
       height="30.263157"
       x="142.85785"
       y="913.34485"
       transform="matrix(0.96986432,-0.24364564,0.24364564,0.96986432,0,0)" />
    <path
       sodipodi:type="arc"
       style="fill:#800000;stroke:none"
       id="path3946-2-2-2"
       sodipodi:cx="323.6842"
       sodipodi:cy="558.56818"
       sodipodi:rx="11.842105"
       sodipodi:ry="11.842105"
       d="m 335.40981,556.91115 a 11.842105,11.842105 0 1 1 -0.0124,-0.0857 l -11.71317,1.74277 z"
       transform="matrix(1.3377361,0,0,1.3377361,219.99595,136.14535)"
       sodipodi:start="6.1427982"
       sodipodi:end="12.418667" />
    <path
       sodipodi:type="arc"
       style="fill:#800000;stroke:none"
       id="path3946-2-2-4"
       sodipodi:cx="323.6842"
       sodipodi:cy="558.56818"
       sodipodi:rx="11.842105"
       sodipodi:ry="11.842105"
       d="m 335.40981,556.91115 a 11.842105,11.842105 0 1 1 -0.0124,-0.0857 l -11.71317,1.74277 z"
       transform="matrix(1.3377361,0,0,1.3377361,186.99595,136.14535)"
       sodipodi:start="6.1427982"
       sodipodi:end="12.418667" />
    <path
       style="fill:none;stroke:#000000;stroke-width:4;stroke-linecap:butt;stroke-linejoin:miter;stroke-miterlimit:4;stroke-opacity:1;stroke-dasharray:none"
       d="m 578,596.09448 c -6.10779,8.72504 -13.5549,16.51065 -22,23 -9.27316,7.12564 -19.78157,12.69649 -31,16 -18.86136,5.55413 -39.446,4.50758 -58,-2 -12.04625,-4.22507 -23.298,-10.70335 -33,-19"
       id="path4241"
       inkscape:path-effect="#path-effect4243"
       inkscape:original-d="m 578,596.09448 c 0,0 -6,18 -22,23 -16,5 1,19 -31,16 -32,-3 -41,5 -58,-2 -17,-7 -33,-19 -33,-19"
       inkscape:connector-curvature="0"
       transform="translate(0,308.2677)"
       sodipodi:nodetypes="csssc" />
    <path
       style="fill:none;stroke:#000000;stroke-width:4;stroke-linecap:butt;stroke-linejoin:miter;stroke-miterlimit:4;stroke-opacity:1;stroke-dasharray:none"
       d="m 634.5,946.85797 c -25.6783,10.67005 -52.57568,18.40305 -80,23 -30.72228,5.14976 -62.31098,6.34437 -93,1 -31.79136,-5.53634 -62.50022,-18.22368 -88,-38 -13.26848,-10.29035 -25.08742,-22.44697 -35,-36"
       id="path4241-0"
       inkscape:path-effect="#path-effect4243-4"
       inkscape:original-d="m 634.5,946.85797 c 0,0 109,13 -80,23 -16.73964,0.8857 -61,4 -93,1 -32,-3 -71,-31 -88,-38 -17,-7 -35,-36 -35,-36"
       inkscape:connector-curvature="0"
       sodipodi:nodetypes="csssc" />
    <rect
       style="fill:#000000;stroke:none"
       id="rect4082-7"
       width="150"
       height="3.9473684"
       x="634"
       y="945.38849" />
    <rect
       style="fill:#aad400"
       id="rect3020-5"
       width="35.526314"
       height="30.263157"
       x="633.23682"
       y="915.23059" />
    <rect
       style="fill:#aad400"
       id="rect3020-6"
       width="35.526314"
       height="30.263157"
       x="675.23682"
       y="915.23059" />
    <rect
       style="fill:#aad400"
       id="rect3020-4"
       width="35.526314"
       height="30.263157"
       x="717.23682"
       y="915.23059" />
    <rect
       style="fill:#000000;stroke:none"
       id="rect4318"
       width="239.74686"
       height="1.2221683"
       x="733.86517"
       y="197.89989"
       transform="matrix(0.82790181,0.56087306,-0.49020833,0.87160529,0,0)" />
    <rect
       style="fill:#000000;stroke:none"
       id="rect4320"
       width="197"
       height="2"
       x="707"
       y="717.36218" />
    <rect
       style="fill:#000000;stroke:none"
       id="rect4322"
       width="147"
       height="2"
       x="197.24651"
       y="1165.042"
       transform="matrix(0.77084324,-0.63702488,0.63702488,0.77084324,0,0)" />
    <rect
       style="fill:#000000"
       id="rect3044-6-5"
       width="43.131577"
       height="3.9473684"
       x="-888.90253"
       y="857.16473"
       transform="scale(-1,1)" />
    <rect
       style="fill:#000000"
       id="rect3044-5-3"
       width="66.315788"
       height="2.3763955"
       x="794.21747"
       y="845.96832"
       transform="matrix(0,1,1,0,0,0)" />
    <rect
       style="fill:#000000"
       id="rect3044-5-5-0"
       width="26.315788"
       height="2.3763955"
       x="834.1911"
       y="887.00873"
       transform="matrix(0,1,1,0,0,0)" />
    <rect
       style="fill:#80b3ff;stroke:none"
       id="rect4074-0"
       width="97.817192"
       height="2.6315789"
       x="-868.43475"
       y="819.55951"
       transform="scale(-1,1)" />
    <rect
       style="fill:#80b3ff;stroke:none"
       id="rect4076-8"
       width="2.6140349"
       height="36.842106"
       x="-869.32361"
       y="820.08582"
       transform="scale(-1,1)" />
    <rect
       style="fill:#80b3ff;stroke:none"
       id="rect4078-4"
       width="2.6140349"
       height="77.631577"
       x="-770.51312"
       y="820.98053"
       transform="scale(-1,1)" />
    <rect
       style="fill:#aa4400;stroke:none"
       id="rect4080-7"
       width="113.71053"
       height="3.9473684"
       x="-879.62286"
       y="898.61212"
       transform="scale(-1,1)" />
    <rect
       style="fill:#000000;stroke:none"
       id="rect4082-3"
       width="149"
       height="3.9473684"
       x="-894"
       y="902.55951"
       transform="scale(-1,1)" />
    <rect
       style="fill:#000000;stroke:none"
       id="rect4363"
       width="72"
       height="2"
       x="1098.0339"
       y="-214.98933"
       transform="matrix(0.65448415,0.75607572,-0.75607572,0.65448415,0,0)" />
    <path
       sodipodi:type="arc"
       style="fill:#a7ac93;stroke:none"
       id="path3946-2-1-8"
       sodipodi:cx="323.6842"
       sodipodi:cy="558.56818"
       sodipodi:rx="11.842105"
       sodipodi:ry="11.842105"
       d="m 335.40981,556.91115 a 11.842105,11.842105 0 1 1 -0.0124,-0.0857 l -11.71317,1.74277 z"
       transform="matrix(0.55561072,0,0,0.55561072,724.15758,408.01571)"
       sodipodi:start="6.1427982"
       sodipodi:end="12.418667" />
    <path
       sodipodi:type="arc"
       style="fill:#800000;stroke:none"
       id="path3946-0"
       sodipodi:cx="323.6842"
       sodipodi:cy="558.56818"
       sodipodi:rx="11.842105"
       sodipodi:ry="11.842105"
       d="m 335.40981,556.91115 a 11.842105,11.842105 0 1 1 -0.0124,-0.0857 l -11.71317,1.74277 z"
       transform="matrix(0.70448151,0,0,0.70448151,700.47046,338.36121)"
       sodipodi:start="6.1427982"
       sodipodi:end="12.418667" />
    <path
       sodipodi:type="arc"
       style="fill:#800000;stroke:none"
       id="path3946-0-6"
       sodipodi:cx="323.6842"
       sodipodi:cy="558.56818"
       sodipodi:rx="11.842105"
       sodipodi:ry="11.842105"
       d="m 335.40981,556.91115 a 11.842105,11.842105 0 1 1 -0.0124,-0.0857 l -11.71317,1.74277 z"
       transform="matrix(0.70448151,0,0,0.70448151,713.97046,328.86122)"
       sodipodi:start="6.1427982"
       sodipodi:end="12.418667" />
    <path
       sodipodi:type="arc"
       style="fill:#800000;stroke:none"
       id="path3946-0-5"
       sodipodi:cx="323.6842"
       sodipodi:cy="558.56818"
       sodipodi:rx="11.842105"
       sodipodi:ry="11.842105"
       d="m 335.40981,556.91115 a 11.842105,11.842105 0 1 1 -0.0124,-0.0857 l -11.71317,1.74277 z"
       transform="matrix(0.70448151,0,0,0.70448151,689.97046,325.86122)"
       sodipodi:start="6.1427982"
       sodipodi:end="12.418667" />
    <path
       sodipodi:type="arc"
       style="fill:#800000;stroke:none"
       id="path3946-0-3"
       sodipodi:cx="323.6842"
       sodipodi:cy="558.56818"
       sodipodi:rx="11.842105"
       sodipodi:ry="11.842105"
       d="m 335.40981,556.91115 a 11.842105,11.842105 0 1 1 -0.0124,-0.0857 l -11.71317,1.74277 z"
       transform="matrix(0.70448151,0,0,0.70448151,726.97046,318.86122)"
       sodipodi:start="6.1427982"
       sodipodi:end="12.418667" />
    <path
       sodipodi:type="arc"
       style="fill:#800000;stroke:none"
       id="path3946-0-8"
       sodipodi:cx="323.6842"
       sodipodi:cy="558.56818"
       sodipodi:rx="11.842105"
       sodipodi:ry="11.842105"
       d="m 335.40981,556.91115 a 11.842105,11.842105 0 1 1 -0.0124,-0.0857 l -11.71317,1.74277 z"
       transform="matrix(0.70448151,0,0,0.70448151,702.97046,315.86122)"
       sodipodi:start="6.1427982"
       sodipodi:end="12.418667" />
    <path
       sodipodi:type="arc"
       style="fill:#800000;stroke:none"
       id="path3946-0-2"
       sodipodi:cx="323.6842"
       sodipodi:cy="558.56818"
       sodipodi:rx="11.842105"
       sodipodi:ry="11.842105"
       d="m 335.40981,556.91115 a 11.842105,11.842105 0 1 1 -0.0124,-0.0857 l -11.71317,1.74277 z"
       transform="matrix(0.70448151,0,0,0.70448151,716.97046,305.86122)"
       sodipodi:start="6.1427982"
       sodipodi:end="12.418667" />
    <path
       sodipodi:type="arc"
       style="fill:#800000;stroke:none"
       id="path3946-0-2-9"
       sodipodi:cx="323.6842"
       sodipodi:cy="558.56818"
       sodipodi:rx="11.842105"
       sodipodi:ry="11.842105"
       d="m 335.40981,556.91115 a 11.842105,11.842105 0 1 1 -0.0124,-0.0857 l -11.71317,1.74277 z"
       transform="matrix(0.70448151,0,0,0.70448151,687.97046,308.86122)"
       sodipodi:start="6.1427982"
       sodipodi:end="12.418667" />
  </g>
</svg>
